<?xml version="1.0" encoding="UTF-8"?>
<svg viewBox="0 0 413.33786 541.69977" xmlns="http://www.w3.org/2000/svg">
 <defs>
  <filter id="b">
   <feGaussianBlur stdDeviation="1.70682"/>
  </filter>
  <filter id="c">
   <feGaussianBlur stdDeviation="6.05286"/>
  </filter>
  <filter id="a" x="-.78652" y="-.29659" width="2.573" height="1.5932">
   <feGaussianBlur stdDeviation="6.97058"/>
  </filter>
  <filter id="d" x="-.01647" y="-.30409" width="1.0329" height="1.6082">
   <feGaussianBlur stdDeviation="2.01013"/>
  </filter>
 </defs>
 <g transform="translate(-2.1989 -4.9202)">
  <path transform="matrix(.9798 0 0 1 8.3948 0)" d="m23.162 18.245c-4.9619 0-8.9688 3.9756-8.9688 8.9375v109.97h16.219v112.16h-16.219v288.34c0 4.9619 4.0069 8.9687 8.9688 8.9688h135.34l2.9688-5.1562v-0.28125h0.15625l0.1875-0.3125 0.1875 0.3125h98.125l3.125 5.4375h143.34c4.9619 0 8.9375-4.0068 8.9375-8.9688v-330.19h-16.25v-24.406h16.25v-101.38l-63.594-63.438h-328.78z" fill="#010007" filter="url(#c)" opacity=".52604"/>
  <path d="m11.589 120.91h10.66a8.1948 8.1948 0 0 1 8.1948 8.1948v39.039a8.1948 8.1948 0 0 1 -8.1948 8.1948h-10.66a8.1948 8.1948 0 0 1 -8.1948 -8.1948v-39.039a8.1948 8.1948 0 0 1 8.1948 -8.1948" fill="#ece9e9" stroke="#b29f9f" stroke-linejoin="round" stroke-width=".97708"/>
  <path d="m11.666 5.4189c-4.9619 0-8.9688 3.9756-8.9688 8.9375v109.97h16.219v112.16h-16.219v288.34c0 4.9619 4.0069 8.9687 8.9688 8.9688h135.34l2.9688-5.1562v-0.28125h0.15625l0.1875-0.3125 0.1875 0.3125h98.125l3.125 5.4375h143.34c4.9619 0 8.9375-4.0068 8.9375-8.9688v-330.19h-16.25v-24.406h16.25v-101.38l-63.594-63.438h-328.78z" fill="#1f1573" stroke="#5295d6" stroke-linejoin="round" stroke-width=".99746"/>
  <path d="m98.073 62.176h216.02a64.276 64.276 0 0 1 64.276 64.276v297.1a64.276 64.276 0 0 1 -64.276 64.276h-216.02a64.276 64.276 0 0 1 -64.276 -64.276v-297.1a64.276 64.276 0 0 1 64.276 -64.276" fill="#070707" opacity=".15104" stroke="#000" stroke-linejoin="round" stroke-width="1.028"/>
  <path d="m64.189 502.47h277.03a7.6689 7.6689 0 0 1 7.6689 7.6689 7.6689 7.6689 0 0 1 -7.6689 7.6689h-277.03a7.6689 7.6689 0 0 1 -7.6689 -7.6689 7.6689 7.6689 0 0 1 7.6689 -7.6689" fill="#f1f0fa" filter="url(#d)" opacity=".94792" stroke="#000" stroke-linejoin="round" stroke-width=".52675"/>
  <path d="m67.567 500.47h270.27a9.665 9.665 0 0 1 9.665 9.665 9.665 9.665 0 0 1 -9.665 9.665h-270.27a9.665 9.665 0 0 1 -9.665 -9.665 9.665 9.665 0 0 1 9.665 -9.665" fill="#1b1363" opacity=".95313"/>
  <path d="m100.02 72.3h210.78a62.851 62.851 0 0 1 62.851 62.851v290.51a62.851 62.851 0 0 1 -62.851 62.851h-210.78a62.851 62.851 0 0 1 -62.851 -62.851v-290.51a62.851 62.851 0 0 1 62.851 -62.851" fill="#00f" opacity=".15104" stroke="#000" stroke-linejoin="round" stroke-width="1.0046"/>
  <path d="m100.01 74.34c-34.819 0-62.844 28.024-62.844 62.844v35.625c3.935-0.76607 7.9905-1.1875 12.156-1.1875h324.31v-34.438c0-34.819-28.024-62.844-62.844-62.844h-210.78z" fill="#aa0909" filter="url(#b)" stroke="#f3eded" stroke-linejoin="round" stroke-width="1.0046"/>
  <path d="m36.422 172.98v25.656h0.6875c3.1e-4 -0.05335 0-2.6875 0-2.6875 167.57-28.378 178.38 35.125 178.38 35.125 19.334 54.051 102.89 67.076 157.44 18.656v-76.75h-336.5z" fill="#0ff" opacity=".39583" stroke="#000" stroke-linejoin="round" stroke-width="1.0046"/>
  <path d="m84.39 389.4h49.57v11.953h-66.656v-11.953c5.3906-5.5781 12.727-13.055 22.008-22.43 9.3281-9.4218 15.187-15.492 17.578-18.211 4.5468-5.1093 7.7109-9.4218 9.4922-12.938 1.8281-3.5624 2.7421-7.0546 2.7422-10.477-6e-5 -5.578-1.9688-10.125-5.9062-13.641-3.8907-3.5155-8.9766-5.2733-15.258-5.2734-4.4532 1e-4 -9.1641 0.77354-14.133 2.3203-4.9219 1.547-10.195 3.8907-15.82 7.0312v-14.344c5.7187-2.2968 11.062-4.0312 16.031-5.2031s9.5156-1.7577 13.641-1.7578c10.875 1.1e-4 19.547 2.7188 26.016 8.1562s9.703 12.703 9.7031 21.797c-8e-5 4.3126-0.82039 8.4141-2.4609 12.305-1.5938 3.8438-4.5235 8.3907-8.7891 13.641-1.1719 1.3594-4.8985 5.2969-11.18 11.812-6.2813 6.4688-15.141 15.539-26.578 27.211m92.344 6.9609v-9.3984h-7.7344v-3.8906h12.422v15.023c-1.8282 1.2969-3.8438 2.2812-6.0469 2.9531-2.2032 0.65625-4.5547 0.98438-7.0547 0.98438-5.4688 0-9.75-1.5938-12.844-4.7812-3.0781-3.2031-4.6172-7.6562-4.6172-13.359 0-5.7187 1.5391-10.172 4.6172-13.359 3.0937-3.2031 7.375-4.8047 12.844-4.8047 2.2812 3e-5 4.4453 0.28128 6.4922 0.84375 2.0625 0.56253 3.9609 1.3907 5.6953 2.4844v5.0391c-1.75-1.4844-3.6094-2.6015-5.5781-3.3516s-4.0391-1.125-6.2109-1.125c-4.2813 4e-5 -7.5 1.1954-9.6562 3.5859-2.1406 2.3906-3.2109 5.9532-3.2109 10.688-1e-5 4.7188 1.0703 8.2734 3.2109 10.664 2.1562 2.3906 5.375 3.5859 9.6562 3.5859 1.6719 0 3.164-0.14062 4.4766-0.42187 1.3125-0.29687 2.4922-0.75 3.5391-1.3594m18.094-11.719v12.82h7.5938c2.5468 1e-5 4.4297-0.52343 5.6484-1.5703 1.2344-1.0625 1.8515-2.6797 1.8516-4.8516-3e-5 -2.1875-0.61721-3.7969-1.8516-4.8281-1.2188-1.0468-3.1016-1.5703-5.6484-1.5703h-7.5938m0-14.391v10.547h7.0078c2.3125 2e-5 4.0312-0.42967 5.1562-1.2891 1.1406-0.87498 1.7109-2.2031 1.7109-3.9844-2e-5 -1.7656-0.57034-3.0859-1.7109-3.9609-1.125-0.87497-2.8438-1.3125-5.1562-1.3125h-7.0078m-4.7344-3.8906h12.094c3.6094 4e-5 6.3906 0.75004 8.3438 2.25s2.9297 3.6328 2.9297 6.3984c-3e-5 2.1406-0.50003 3.8438-1.5 5.1094s-2.4688 2.0547-4.4062 2.3672c2.3281 0.50002 4.1328 1.5469 5.4141 3.1406 1.2968 1.5781 1.9453 3.5547 1.9453 5.9297-3e-5 3.125-1.0625 5.5391-3.1875 7.2422-2.125 1.7031-5.1485 2.5547-9.0703 2.5547h-12.562v-34.992" fill="#fff"/>
  <path d="m10.841 124.92h3.9932a8.2136 8.2136 0 0 1 8.2136 8.2136v39.128a8.2136 8.2136 0 0 1 -8.2136 8.2136h-3.9932a8.2136 8.2136 0 0 1 -8.2136 -8.2136v-39.128a8.2136 8.2136 0 0 1 8.2136 -8.2136" fill="#4d4d4d" filter="url(#a)" opacity=".25521" stroke="#b29f9f" stroke-linejoin="round" stroke-width=".84992"/>
  <path transform="scale(1.0174 .98287)" d="m65.728 237.18h2.1885v14.334h7.8765v1.8418h-10.065v-16.176m16.576 5.4388c-1.069 1e-5 -1.9141 0.41893-2.5352 1.2568-0.62117 0.83064-0.93175 1.9718-0.93175 3.4236s0.30697 2.5966 0.92091 3.4345c0.62116 0.83063 1.4698 1.246 2.5461 1.246 1.0618 0 1.9032-0.41893 2.5244-1.2568s0.93174-1.9791 0.93175-3.4236-0.31059-2.5749-0.93175-3.4128c-0.62117-0.84507-1.4626-1.2676-2.5244-1.2676m0-1.6902c1.7335 1e-5 3.095 0.56339 4.0845 1.6902s1.4843 2.6869 1.4843 4.6804-0.49478 3.5464-1.4843 4.6804-2.351 1.6901-4.0845 1.6901c-1.7407 0-3.1058-0.56338-4.0954-1.6901-0.98231-1.134-1.4735-2.6941-1.4735-4.6804s0.49115-3.5536 1.4735-4.6804c0.98953-1.1268 2.3546-1.6901 4.0954-1.6902m17.595 0.7584v1.8635c-0.56339-0.31058-1.1304-0.54171-1.701-0.6934-0.56339-0.15889-1.134-0.23834-1.7118-0.23835-1.2929 1e-5 -2.2969 0.41171-3.0119 1.2351s-1.0726 1.9646-1.0726 3.4453 0.35753 2.6327 1.0726 3.4561 1.719 1.2243 3.0119 1.2243c0.57782 0 1.1484-0.07584 1.7118-0.22752 0.5706-0.1589 1.1376-0.39365 1.701-0.70423v1.8418c-0.55617 0.26002-1.134 0.45504-1.7335 0.58505-0.59228 0.13001-1.2243 0.19501-1.896 0.19501-1.8274 0-3.2792-0.57421-4.3554-1.7226s-1.6143-2.6977-1.6143-4.6479c0-1.9791 0.54171-3.5356 1.6251-4.6696 1.0906-1.134 2.5822-1.701 4.4746-1.701 0.61393 1e-5 1.2134 0.06502 1.7985 0.19502 0.58504 0.1228 1.152 0.31059 1.701 0.56338m3.3695-5.1896h2.0044v9.9567l5.948-5.233h2.546l-6.4356 5.6772 6.7064 6.4572h-2.6002l-6.1647-5.9264v5.9264h-2.0044v-16.858" fill="#fff"/>
  <path transform="matrix(.66651 0 0 .61863 372.52 310.52)" d="m-467.57-124.32-13.248 23.865-14.044-23.406 27.292-0.45911z" fill="#fff" stroke="#150f0f" stroke-linejoin="round"/>
 </g>
</svg>
